<?xml version="1.0" ?><svg id="Icons" style="enable-background:new 0 0 32 32;" version="1.1" viewBox="0 0 32 32" xml:space="preserve" xmlns="http://www.w3.org/2000/svg" xmlns:xlink="http://www.w3.org/1999/xlink"><g id="Apple" transform="translate(1.000000, 1.000000)"><g id="Stroke-82"><path d="M10.7,31C10.7,31,10.7,31,10.7,31c-2.6,0-4.4-2.3-5.7-4.3c-3.3-5.1-4-11.5-1.6-15.2c1.6-2.5,4.2-4,6.7-4    c1.3,0,2.4,0.4,3.3,0.7c0.7,0.3,1.4,0.5,2.1,0.5c0.6,0,1.1-0.2,1.8-0.5c0.9-0.3,2-0.7,3.5-0.7c2.2,0,4.5,1.2,6.1,3.2    c0.2,0.2,0.3,0.5,0.2,0.8c-0.1,0.3-0.2,0.5-0.5,0.7c-1.8,1-2.8,2.8-2.6,4.8c0.1,2.1,1.4,3.8,3.3,4.5c0.3,0.1,0.5,0.3,0.6,0.6    c0.1,0.3,0.1,0.5,0,0.8c-0.7,1.5-1,2.2-1.9,3.5c-1.5,2.2-3.3,4.5-5.7,4.5c-1.1,0-1.8-0.3-2.4-0.6c-0.6-0.3-1.2-0.6-2.4-0.6    c-1.1,0-1.7,0.3-2.4,0.6C12.5,30.7,11.8,31,10.7,31z"/></g><g id="Stroke-83"><path d="M14.7,7.7c-0.1,0-0.1,0-0.2,0c-0.5,0-0.9-0.4-1-0.8c-0.3-1.7,0.3-3.7,1.6-5.3c1.2-1.5,3.2-2.5,5-2.7c0.5,0,1,0.3,1.1,0.9    c0.3,1.8-0.3,3.7-1.6,5.3l0,0C18.5,6.7,16.5,7.7,14.7,7.7z"/></g></g></svg>