<?xml version="1.0" ?><svg height="512" id="Layer_1" version="1.1" viewBox="0 0 512 512" width="512" xml:space="preserve" xmlns="http://www.w3.org/2000/svg" xmlns:cc="http://creativecommons.org/ns#" xmlns:dc="http://purl.org/dc/elements/1.1/" xmlns:inkscape="http://www.inkscape.org/namespaces/inkscape" xmlns:rdf="http://www.w3.org/1999/02/22-rdf-syntax-ns#" xmlns:sodipodi="http://sodipodi.sourceforge.net/DTD/sodipodi-0.dtd" xmlns:svg="http://www.w3.org/2000/svg"><defs id="defs12"/><rect height="512" id="rect2987" style="fill:#00a6b9;fill-opacity:1;fill-rule:nonzero;stroke:none" width="512" x="0" y="5.6843419e-014"/><g id="g11" transform="matrix(1.3463089,0,0,1.3463089,-87.877922,-71.308561)"><path d="m 278.67,238.192 41.551,-41.646 -172.407,-95.403 c -2.451,-1.359 -4.826,-2.271 -7.08,-2.787 L 278.67,238.192 z" id="path13-6" style="fill:#ffffff"/><path d="m 326.25,286.427 52.109,-28.834 c 14.35,-7.939 14.35,-20.934 0,-28.873 l -50.566,-27.984 -43.279,43.38 41.736,42.311 z" id="path15" style="fill:#ffffff"/><path d="m 130.033,99.358 c -5.102,2.627 -8.309,8.598 -8.309,17.165 v 253.265 c 0,8.643 3.264,14.65 8.449,17.24 L 272.791,244.084 130.033,99.358 z" id="path17-8" style="fill:#ffffff"/><path d="M 278.635,250.009 141.083,387.875 c 2.15,-0.531 4.406,-1.42 6.73,-2.707 l 170.875,-94.555 -40.053,-40.604 z" id="path19-3" style="fill:#ffffff"/></g></svg>