<?xml version="1.0" ?><svg data-name="Livello 1" height="48" id="Livello_1" viewBox="0 0 48 48" width="48" xmlns="http://www.w3.org/2000/svg"><defs><style>.cls-1{fill:#f2f2f3;}.cls-2{fill:#d8d8d8;}.cls-3{fill:#40a5a8;}.cls-4{fill:#5eb254;}.cls-5{fill:#db4342;}.cls-6{fill:#f2dc36;}.cls-7{fill:#539649;}</style></defs><title/><g data-name="Play Google 2" id="Play_Google_2"><path class="cls-1" d="M2,10H46a2,2,0,0,1,2,2V40a8,8,0,0,1-8,8H8a8,8,0,0,1-8-8V12A2,2,0,0,1,2,10Z"/><path class="cls-2" d="M46,10H42a2,2,0,0,1,2,2V40a8,8,0,0,1-8,8h4a8,8,0,0,0,8-8V12A2,2,0,0,0,46,10Z"/><path class="cls-3" d="M12,19.928V38.072a.95.95,0,0,0,1.386.824l18.1-9.072a.916.916,0,0,0,0-1.648L13.386,19.1A.95.95,0,0,0,12,19.928Z"/><path class="cls-4" d="M26.47,25.662,13.386,19.1a.965.965,0,0,0-1.11.172L22.608,29.608l3.862-3.946"/><path class="cls-5" d="M26.6,32.275l-3.807-4.063L12.276,38.724a.965.965,0,0,0,1.11.172L26.6,32.275"/><path class="cls-6" d="M31.484,28.176l-5.768-2.892L22,29l3.716,3.716,5.768-2.892A.916.916,0,0,0,31.484,28.176Z"/><path class="cls-4" d="M14,14h2a2,2,0,0,0,2-2V6a2,2,0,0,1,2-2h6a2,2,0,0,1,2,2v6a2,2,0,0,0,2,2h2a2,2,0,0,0,2-2V4a4,4,0,0,0-4-4H16a4,4,0,0,0-4,4v8a2,2,0,0,0,2,2"/><path class="cls-7" d="M30,0H28a4,4,0,0,1,4,4v8a2,2,0,0,1-2,2h2a2,2,0,0,0,2-2V4A4,4,0,0,0,30,0Z"/><path class="cls-7" d="M16,6v6a1.885,1.885,0,0,1-.036.356A2,2,0,0,1,14,14h2a2,2,0,0,0,2-2V6a2,2,0,0,1,2-2H18A2,2,0,0,0,16,6Z"/></g></svg>